<?xml version="1.0" encoding="UTF-8" standalone="no"?>
<svg width="48px" height="48px" viewBox="0 0 48 48" version="1.1" xmlns="http://www.w3.org/2000/svg" xmlns:xlink="http://www.w3.org/1999/xlink" xmlns:sketch="http://www.bohemiancoding.com/sketch/ns">
    <!-- Generator: Sketch 3.3.3 (12081) - http://www.bohemiancoding.com/sketch -->
    <title>Group</title>
    <desc>Created with Sketch.</desc>
    <defs></defs>
    <g id="Page-1" stroke="none" stroke-width="1" fill="none" fill-rule="evenodd" sketch:type="MSPage">
        <g id="Group" sketch:type="MSLayerGroup" fill="#FFFFFF">
            <g id="Shape" sketch:type="MSShapeGroup">
                <g>
                    <path d="M47,25 L32.383,25 C31.83,25 31.383,24.553 31.383,24 C31.383,23.448 31.83,23 32.383,23 L47,23 C47.553,23 48,23.448 48,24 C48,24.553 47.553,25 47,25 L47,25 Z"></path>
                    <path d="M15.618,25 L1,25 C0.448,25 0,24.553 0,24 C0,23.448 0.448,23 1,23 L15.618,23 C16.17,23 16.618,23.448 16.618,24 C16.618,24.553 16.17,25 15.618,25 L15.618,25 Z"></path>
                    <path d="M24,48 C23.448,48 23,47.553 23,47 L23,32.382 C23,31.829 23.448,31.382 24,31.382 C24.553,31.382 25,31.829 25,32.382 L25,47 C25,47.553 24.553,48 24,48 L24,48 Z"></path>
                    <path d="M24,16.618 C23.448,16.618 23,16.17 23,15.618 L23,1 C23,0.448 23.448,0 24,0 C24.553,0 25,0.448 25,1 L25,15.618 C25,16.17 24.553,16.618 24,16.618 L24,16.618 Z"></path>
                </g>
                <g transform="translate(6.000000, 6.000000)">
                    <path d="M34.262,35.264 C34.006,35.264 33.75,35.166 33.555,34.971 L23.219,24.633 C22.828,24.242 22.828,23.61 23.219,23.219 C23.61,22.828 24.242,22.828 24.633,23.219 L34.969,33.557 C35.36,33.948 35.36,34.58 34.969,34.971 C34.773,35.166 34.518,35.264 34.262,35.264 L34.262,35.264 Z"></path>
                    <path d="M12.072,13.072 C11.816,13.072 11.56,12.974 11.365,12.779 L1.029,2.443 C0.638,2.052 0.638,1.42 1.029,1.029 C1.42,0.638 2.052,0.638 2.443,1.029 L12.779,11.365 C13.17,11.756 13.17,12.388 12.779,12.779 C12.583,12.974 12.328,13.072 12.072,13.072 L12.072,13.072 Z"></path>
                    <path d="M1.735,35.264 C1.479,35.264 1.223,35.166 1.028,34.971 C0.637,34.58 0.637,33.948 1.028,33.557 L11.365,23.219 C11.756,22.828 12.388,22.828 12.779,23.219 C13.17,23.61 13.17,24.242 12.779,24.633 L2.442,34.971 C2.247,35.166 1.991,35.264 1.735,35.264 L1.735,35.264 Z"></path>
                    <path d="M23.927,13.072 C23.671,13.072 23.415,12.974 23.22,12.779 C22.829,12.388 22.829,11.756 23.22,11.365 L33.557,1.029 C33.948,0.638 34.58,0.638 34.971,1.029 C35.362,1.42 35.362,2.052 34.971,2.443 L24.634,12.779 C24.438,12.974 24.183,13.072 23.927,13.072 L23.927,13.072 Z"></path>
                </g>
            </g>
            <path d="M24,33.382 C18.827,33.382 14.618,29.173 14.618,24 C14.618,18.827 18.826,14.618 24,14.618 C25.102,14.618 26.18,14.807 27.205,15.179 C30.9,16.523 33.383,20.068 33.383,24 C33.383,29.173 29.174,33.382 24,33.382 L24,33.382 Z M24,16.618 C19.93,16.618 16.618,19.93 16.618,24 C16.618,28.07 19.93,31.382 24,31.382 C28.071,31.382 31.383,28.07 31.383,24 C31.383,20.906 29.43,18.116 26.522,17.059 C25.717,16.767 24.868,16.618 24,16.618 L24,16.618 Z" id="Shape" sketch:type="MSShapeGroup"></path>
            <g transform="translate(8.000000, 8.000000)" id="Shape" sketch:type="MSShapeGroup">
                <g>
                    <path d="M30.866,22.404 C30.753,22.404 30.637,22.384 30.524,22.343 L23.707,19.864 C23.188,19.676 22.92,19.101 23.109,18.583 C23.297,18.063 23.869,17.798 24.39,17.985 L31.207,20.464 C31.726,20.652 31.994,21.227 31.805,21.745 C31.658,22.152 31.274,22.404 30.866,22.404 L30.866,22.404 Z"></path>
                    <path d="M7.975,14.083 C7.862,14.083 7.746,14.063 7.633,14.022 L0.791,11.535 C0.272,11.346 0.004,10.772 0.193,10.253 C0.382,9.735 0.957,9.466 1.475,9.655 L8.317,12.142 C8.836,12.331 9.104,12.905 8.915,13.424 C8.767,13.831 8.384,14.083 7.975,14.083 L7.975,14.083 Z"></path>
                    <path d="M10.596,31.866 C10.483,31.866 10.367,31.846 10.255,31.805 C9.736,31.617 9.468,31.043 9.656,30.524 L12.146,23.671 C12.335,23.152 12.908,22.886 13.427,23.073 C13.946,23.261 14.214,23.835 14.026,24.354 L11.536,31.207 C11.389,31.614 11.005,31.866 10.596,31.866 L10.596,31.866 Z"></path>
                    <path d="M18.936,8.925 C18.823,8.925 18.707,8.905 18.594,8.864 C18.075,8.675 17.807,8.101 17.996,7.582 L20.465,0.79 C20.653,0.271 21.226,0.003 21.746,0.192 C22.265,0.381 22.533,0.955 22.344,1.474 L19.875,8.266 C19.728,8.673 19.344,8.925 18.936,8.925 L18.936,8.925 Z"></path>
                </g>
                <g>
                    <path d="M22.69,31.332 C22.313,31.332 21.953,31.118 21.783,30.755 L18.638,24.015 C18.405,23.514 18.621,22.919 19.121,22.686 C19.621,22.454 20.217,22.67 20.45,23.169 L23.595,29.909 C23.828,30.41 23.612,31.005 23.112,31.238 C22.976,31.302 22.832,31.332 22.69,31.332 L22.69,31.332 Z"></path>
                    <path d="M12.457,9.406 C12.081,9.406 11.72,9.193 11.55,8.829 L8.403,2.09 C8.17,1.59 8.386,0.994 8.886,0.76 C9.388,0.527 9.982,0.743 10.216,1.243 L13.363,7.982 C13.596,8.482 13.38,9.078 12.88,9.312 C12.742,9.376 12.598,9.406 12.457,9.406 L12.457,9.406 Z"></path>
                    <path d="M1.667,23.689 C1.291,23.689 0.93,23.475 0.76,23.112 C0.527,22.612 0.743,22.016 1.243,21.783 L7.914,18.67 C8.414,18.439 9.009,18.653 9.243,19.153 C9.476,19.653 9.26,20.249 8.76,20.482 L2.089,23.595 C1.952,23.659 1.808,23.689 1.667,23.689 L1.667,23.689 Z"></path>
                    <path d="M23.778,13.369 C23.401,13.369 23.041,13.156 22.871,12.792 C22.638,12.292 22.853,11.697 23.354,11.463 L29.909,8.403 C30.41,8.169 31.004,8.386 31.238,8.886 C31.471,9.386 31.256,9.981 30.755,10.215 L24.2,13.275 C24.063,13.339 23.92,13.369 23.778,13.369 L23.778,13.369 Z"></path>
                </g>
            </g>
        </g>
    </g>
</svg>